<svg xmlns="http://www.w3.org/2000/svg" xmlns:xlink="http://www.w3.org/1999/xlink" viewBox="0 0 733.01 593.11"><defs><style>.cls-1{fill:none;}.cls-2{opacity:0.5;}.cls-3{clip-path:url(#clip-path);}.cls-4{clip-path:url(#clip-path-2);}.cls-5{fill:#4e5574;}.cls-6{fill:url(#未命名的渐变_66);}.cls-7{fill:url(#未命名的渐变_41);}.cls-8{fill:url(#未命名的渐变_59);}.cls-9{fill:url(#未命名的渐变_82);}.cls-10{fill:#33545e;}.cls-11{opacity:0.75;}.cls-12{clip-path:url(#clip-path-3);}</style><clipPath id="clip-path" transform="translate(62.2 28.17)"><polygon class="cls-1" points="511.57 212.53 476.27 103.89 359.73 141.75 359.73 16.76 232.63 16.76 232.63 139.67 119.47 102.9 81.64 219.34 201.72 258.35 129.87 357.25 224.91 426.31 298.65 324.82 371.73 425.42 469.29 354.54 393.89 250.76 511.57 212.53"/></clipPath><clipPath id="clip-path-2" transform="translate(62.2 28.17)"><polygon class="cls-1" points="561.1 212.53 525.8 103.89 409.26 141.75 409.26 16.76 282.15 16.76 282.15 139.67 168.99 102.9 131.16 219.34 251.25 258.35 179.4 357.25 274.44 426.31 348.17 324.82 421.26 425.42 518.81 354.54 443.41 250.76 561.1 212.53"/></clipPath><linearGradient id="未命名的渐变_66" x1="591.99" y1="445.65" x2="685.07" y2="445.65" gradientUnits="userSpaceOnUse"><stop offset="0" stop-color="#90cac9"/><stop offset="0.18" stop-color="#93c5c7"/><stop offset="0.39" stop-color="#9cb6c0"/><stop offset="0.62" stop-color="#aa9eb4"/><stop offset="0.86" stop-color="#be7ca5"/><stop offset="1" stop-color="#cb659a"/></linearGradient><linearGradient id="未命名的渐变_41" x1="428.56" y1="517.1" x2="545.59" y2="517.1" gradientTransform="translate(-203.65 710) rotate(-61.22)" gradientUnits="userSpaceOnUse"><stop offset="0" stop-color="#83bf84"/><stop offset="1" stop-color="#59b8cf"/></linearGradient><linearGradient id="未命名的渐变_59" x1="354.7" y1="269.98" x2="443.77" y2="269.98" gradientTransform="translate(32.58 120.22) rotate(22.96)" gradientUnits="userSpaceOnUse"><stop offset="0" stop-color="#81c4ce"/><stop offset="1" stop-color="#405299"/></linearGradient><linearGradient id="未命名的渐变_82" x1="135.8" y1="261.32" x2="249.46" y2="261.32" gradientTransform="translate(88.23 91.37) rotate(30.57)" gradientUnits="userSpaceOnUse"><stop offset="0" stop-color="#51b2de"/><stop offset="0.52" stop-color="#5865a6"/><stop offset="1" stop-color="#6c3989"/></linearGradient><clipPath id="clip-path-3" transform="translate(62.2 28.17)"><polygon class="cls-1" points="536.34 195.76 501.04 87.12 384.49 124.99 384.49 0 257.39 0 257.39 122.91 144.23 86.14 106.4 202.57 226.49 241.59 154.63 340.49 249.68 409.55 323.41 308.06 396.5 408.66 494.05 337.78 418.65 234 536.34 195.76"/></clipPath><image id="image" width="5999" height="3999" xlink:href="../../../../../Downloads/pawel-czerwinski-8uZPynIu-rQ-unsplash.jpg"/></defs><g id="图层_2" data-name="图层 2"><g id="图层_1-2" data-name="图层 1"><g class="cls-2"><g class="cls-3"><use transform="translate(9.36 16.76) scale(0.12)" xlink:href="#image"/></g></g><g class="cls-2"><g class="cls-4"><use transform="translate(34.13) scale(0.12)" xlink:href="#image"/></g></g><g class="cls-2"><polygon class="cls-5" points="623.3 240.69 588 132.05 471.46 169.92 471.46 44.93 344.36 44.93 344.36 167.84 231.19 131.07 193.36 247.5 313.45 286.52 241.6 385.42 336.64 454.48 410.37 352.99 483.46 453.59 581.01 382.71 505.61 278.93 623.3 240.69"/></g><polygon class="cls-6" points="684.47 459.54 685.07 433.67 657.31 433.01 666.7 406.29 639.52 396.75 630.29 423.03 608.86 406.67 592.03 428.72 614.78 446.08 591.99 461.83 607.13 483.73 630.51 467.57 638.59 494.56 664.76 486.73 656.43 458.88 684.47 459.54"/><polygon class="cls-7" points="527.18 489.82 499.03 473.49 481.51 503.69 457.74 477.17 430.78 501.34 454.15 527.42 423.15 541.14 437.27 573.03 470.17 558.47 473.73 593.12 507.03 589.69 503.37 554.14 538 561.58 545.22 527.99 509.49 520.32 527.18 489.82"/><polygon class="cls-8" points="330.13 553.95 340.32 531.38 316.11 520.44 334.35 500.39 313.97 481.84 296.03 501.55 283.25 479.14 260.19 492.29 273.75 516.07 247.79 521.44 252.96 546.39 279.59 540.88 276.63 567.67 302.62 570.55 305.67 542.9 330.13 553.95"/><polygon class="cls-9" points="160.84 457.47 177.56 430.64 148.78 412.71 175.24 390.45 152.59 363.54 126.57 385.44 114.19 354.93 82.81 367.66 95.94 400.04 62.2 402.45 64.52 434.87 99.14 432.4 90.86 465.79 123.25 473.82 131.78 439.37 160.84 457.47"/><g class="cls-2"><polygon class="cls-10" points="573.77 240.69 538.48 132.05 421.93 169.92 421.93 44.93 294.83 44.93 294.83 167.84 181.67 131.07 143.84 247.5 263.93 286.52 192.07 385.42 287.12 454.48 360.85 352.99 433.93 453.59 531.49 382.71 456.09 278.93 573.77 240.69"/></g><g class="cls-11"><g class="cls-12"><use transform="translate(0 16.76) scale(0.12)" xlink:href="#image"/></g></g></g></g></svg>